<svg width="24" height="26" viewBox="0 0 24 26" fill="none" xmlns="http://www.w3.org/2000/svg">
<path d="M0 23.1959C0 25.2371 2 25.2371 2 25.2371H22C22 25.2371 24 25.2371 24 23.1959C24 21.1546 22 15.0309 12 15.0309C2 15.0309 0 21.1546 0 23.1959Z" fill="#F5F5DC"/>
<path d="M16.2426 11.1961C15.1174 12.3445 13.5913 12.9897 12 12.9897C10.4087 12.9897 8.88258 12.3445 7.75736 11.1961C6.63214 10.0477 6 8.49007 6 6.86596C6 5.24185 6.63214 3.68426 7.75736 2.53584C8.88258 1.38742 10.4087 0.742249 12 0.742249C13.5913 0.742249 15.1174 1.38742 16.2426 2.53584C17.3679 3.68426 18 5.24185 18 6.86596C18 8.49007 17.3679 10.0477 16.2426 11.1961Z" fill="#F5F5DC"/>
</svg>
