<svg width="253" height="46" viewBox="0 0 253 46" fill="none" xmlns="http://www.w3.org/2000/svg">
<g filter="url(#filter0_d_136_208)">
<mask id="path-1-outside-1_136_208" maskUnits="userSpaceOnUse" x="3" y="-1" width="247" height="40" fill="black">
<rect fill="white" x="3" y="-1" width="247" height="40"/>
<path d="M30.0234 11.3125C30.0234 13.3906 29.4688 15.0234 28.3594 16.2109C27.2656 17.3828 25.8359 18.2656 24.0703 18.8594V19.0469C25.1641 19.2344 26.1641 19.5547 27.0703 20.0078C27.9766 20.4453 28.7578 21.0312 29.4141 21.7656C30.0547 22.4844 30.5547 23.3438 30.9141 24.3438C31.2734 25.3438 31.4531 26.4766 31.4531 27.7422C31.4531 33.9141 27.3438 37 19.125 37H4.82812V34.9844H5.4375C6.64062 34.9844 7.59375 34.7656 8.29688 34.3281C9.01562 33.875 9.375 32.9453 9.375 31.5391V8.00781C9.375 6.66406 9.00781 5.78906 8.27344 5.38281C7.53906 4.96094 6.59375 4.75 5.4375 4.75H4.82812V2.73438H17.6953C21.8516 2.73438 24.9453 3.42969 26.9766 4.82031C29.0078 6.19531 30.0234 8.35938 30.0234 11.3125ZM17.4375 5.125H14.2266V17.8516H17.5547C20.3047 17.8516 22.2266 17.3359 23.3203 16.3047C23.8828 15.7891 24.2812 15.1172 24.5156 14.2891C24.7656 13.4609 24.8906 12.4688 24.8906 11.3125C24.8906 8.98438 24.3281 7.36719 23.2031 6.46094C22.6094 5.97656 21.8359 5.63281 20.8828 5.42969C19.9453 5.22656 18.7969 5.125 17.4375 5.125ZM18.9844 20.2422H14.2266V34.6094H18.8906C21.5938 34.6094 23.5078 34.0781 24.6328 33.0156C25.7578 31.9844 26.3203 30.1797 26.3203 27.6016C26.3203 26.3516 26.2031 25.2656 25.9688 24.3438C25.7344 23.4219 25.3359 22.6562 24.7734 22.0469C23.6328 20.8438 21.7031 20.2422 18.9844 20.2422ZM59.4609 24.0859C59.4609 28.6016 58.5 31.9609 56.5781 34.1641C54.6719 36.3672 51.875 37.4688 48.1875 37.4688C44.6562 37.4688 41.9375 36.3672 40.0312 34.1641C39.0781 33.0547 38.3438 31.6641 37.8281 29.9922C37.3125 28.3047 37.0547 26.3359 37.0547 24.0859C37.0547 19.6016 38 16.2656 39.8906 14.0781C41.7969 11.8906 44.6094 10.7969 48.3281 10.7969C51.8906 10.7969 54.6172 11.8828 56.5078 14.0547C57.4766 15.1484 58.2109 16.5312 58.7109 18.2031C59.2109 19.875 59.4609 21.8359 59.4609 24.0859ZM41.6953 24.0859C41.6953 25.8672 41.8125 27.4375 42.0469 28.7969C42.2812 30.1406 42.6641 31.2734 43.1953 32.1953C44.2422 34.0547 45.9375 34.9844 48.2812 34.9844C50.6094 34.9844 52.2969 34.0547 53.3438 32.1953C53.8594 31.2734 54.2266 30.1406 54.4453 28.7969C54.6797 27.4375 54.7969 25.8672 54.7969 24.0859C54.7969 22.3047 54.6797 20.7422 54.4453 19.3984C54.2109 18.0547 53.8359 16.9297 53.3203 16.0234C52.2734 14.2266 50.5781 13.3281 48.2344 13.3281C45.9062 13.3281 44.2188 14.2266 43.1719 16.0234C42.6562 16.9297 42.2812 18.0547 42.0469 19.3984C41.8125 20.7422 41.6953 22.3047 41.6953 24.0859ZM87.1641 24.0859C87.1641 28.6016 86.2031 31.9609 84.2812 34.1641C82.375 36.3672 79.5781 37.4688 75.8906 37.4688C72.3594 37.4688 69.6406 36.3672 67.7344 34.1641C66.7812 33.0547 66.0469 31.6641 65.5312 29.9922C65.0156 28.3047 64.7578 26.3359 64.7578 24.0859C64.7578 19.6016 65.7031 16.2656 67.5938 14.0781C69.5 11.8906 72.3125 10.7969 76.0312 10.7969C79.5938 10.7969 82.3203 11.8828 84.2109 14.0547C85.1797 15.1484 85.9141 16.5312 86.4141 18.2031C86.9141 19.875 87.1641 21.8359 87.1641 24.0859ZM69.3984 24.0859C69.3984 25.8672 69.5156 27.4375 69.75 28.7969C69.9844 30.1406 70.3672 31.2734 70.8984 32.1953C71.9453 34.0547 73.6406 34.9844 75.9844 34.9844C78.3125 34.9844 80 34.0547 81.0469 32.1953C81.5625 31.2734 81.9297 30.1406 82.1484 28.7969C82.3828 27.4375 82.5 25.8672 82.5 24.0859C82.5 22.3047 82.3828 20.7422 82.1484 19.3984C81.9141 18.0547 81.5391 16.9297 81.0234 16.0234C79.9766 14.2266 78.2812 13.3281 75.9375 13.3281C73.6094 13.3281 71.9219 14.2266 70.875 16.0234C70.3594 16.9297 69.9844 18.0547 69.75 19.3984C69.5156 20.7422 69.3984 22.3047 69.3984 24.0859ZM109.453 17.7578L106.078 21.5547L112.477 31.0469C113.305 32.3281 114.125 33.3047 114.938 33.9766C115.766 34.6484 116.719 34.9844 117.797 34.9844H117.938V37H117.258C115.867 37 114.719 36.9609 113.812 36.8828C112.922 36.7891 112.148 36.5781 111.492 36.25C110.836 35.9375 110.234 35.4766 109.688 34.8672C109.141 34.2422 108.531 33.3984 107.859 32.3359L103.055 24.8125L99.5156 27.4375V31.7734C99.5156 33.1016 99.875 33.9688 100.594 34.375C101.312 34.7812 102.266 34.9844 103.453 34.9844H103.594V37H90.6797V34.9844H91.0547C92.2578 34.9844 93.2109 34.7656 93.9141 34.3281C94.6328 33.8906 94.9922 32.9609 94.9922 31.5391V5.80469C94.9922 4.46094 94.625 3.58594 93.8906 3.17969C93.1562 2.75781 92.2109 2.54688 91.0547 2.54688H90.6797V0.53125H99.5156V19.0469C99.5156 19.4844 99.5078 20.0469 99.4922 20.7344C99.4766 21.4062 99.4531 22.0703 99.4219 22.7266C99.4062 23.1016 99.3906 23.4922 99.375 23.8984C99.3594 24.2891 99.3438 24.6875 99.3281 25.0938L105.328 18.5312C106.172 17.5781 106.82 16.7578 107.273 16.0703C107.727 15.3828 107.953 14.7734 107.953 14.2422C107.953 13.8203 107.766 13.5547 107.391 13.4453C107.016 13.3359 106.422 13.2812 105.609 13.2812V11.2656H116.203V13.2812C115.094 13.2812 114 13.6719 112.922 14.4531C111.859 15.2344 110.703 16.3359 109.453 17.7578Z"/>
<path d="M139.641 5.125H134.977V31.5391C134.977 32.9609 135.336 33.8906 136.055 34.3281C136.773 34.7656 137.727 34.9844 138.914 34.9844H140.016V37H125.086V34.9844H126.188C127.375 34.9844 128.328 34.7812 129.047 34.375C129.766 33.9688 130.125 33.1016 130.125 31.7734V5.125H125.531C124.188 5.125 123.227 5.49219 122.648 6.22656C122.086 6.96094 121.734 7.90625 121.594 9.0625L121.336 11.125H118.852L119.086 2.73438H146.109L146.344 11.125H143.859L143.625 9.0625C143.484 7.90625 143.125 6.96094 142.547 6.22656C141.969 5.49219 141 5.125 139.641 5.125ZM161.438 34.9844H162.773V37H148.922V34.9844H149.062C150.266 34.9844 151.219 34.7656 151.922 34.3281C152.641 33.8906 153 32.9609 153 31.5391V16.5625C153 15.2188 152.633 14.3359 151.898 13.9141C151.164 13.4922 150.219 13.2812 149.062 13.2812H148.922V11.2656H156.305L157.219 16.0234H157.453C157.922 14.9609 158.398 14.0391 158.883 13.2578C159.383 12.4766 160.031 11.875 160.828 11.4531C161.625 11.0156 162.695 10.7969 164.039 10.7969C167.492 10.7969 169.219 11.9609 169.219 14.2891C169.219 16.5703 167.727 17.7109 164.742 17.7109C164.742 16.3828 164.555 15.4297 164.18 14.8516C163.805 14.2578 163.148 13.9609 162.211 13.9609C161.617 13.9609 161.086 14.125 160.617 14.4531C159.711 15.1094 159.008 16.1953 158.508 17.7109C158.258 18.3984 158.062 19.1328 157.922 19.9141C157.766 20.6797 157.656 21.4375 157.594 22.1875C157.531 22.9375 157.5 23.6172 157.5 24.2266V31.7734C157.5 33.1016 157.859 33.9688 158.578 34.375C159.297 34.7812 160.25 34.9844 161.438 34.9844ZM182.836 13.1875C181.07 13.1875 179.898 13.6562 179.32 14.5938C178.742 15.5156 178.453 16.7891 178.453 18.4141C177.125 18.4141 176.109 18.1875 175.406 17.7344C174.719 17.2812 174.375 16.5 174.375 15.3906C174.375 14.5625 174.602 13.8594 175.055 13.2812C175.508 12.7031 176.133 12.2266 176.93 11.8516C177.711 11.4922 178.625 11.2266 179.672 11.0547C180.719 10.8828 181.836 10.7969 183.023 10.7969C184.492 10.7969 185.773 10.9453 186.867 11.2422C187.961 11.5234 188.875 11.9922 189.609 12.6484C191.078 13.9609 191.812 16.1094 191.812 19.0938V31.5391C191.812 32.8203 192.031 33.7188 192.469 34.2344C192.906 34.7344 193.68 34.9844 194.789 34.9844H194.93V37H188.438L187.688 32.875H187.289C186.586 33.8125 185.906 34.625 185.25 35.3125C184.594 36 183.844 36.5312 183 36.9062C182.156 37.2812 181.094 37.4688 179.812 37.4688C178.75 37.4688 177.758 37.3125 176.836 37C175.93 36.6875 175.148 36.2188 174.492 35.5938C173.82 34.9531 173.297 34.1562 172.922 33.2031C172.547 32.25 172.359 31.1172 172.359 29.8047C172.359 27.2578 173.266 25.3672 175.078 24.1328C176.891 22.8984 179.633 22.2266 183.305 22.1172L187.289 21.9766V19.0938C187.289 17.875 187.18 16.8281 186.961 15.9531C186.758 15.0625 186.336 14.3828 185.695 13.9141C185.07 13.4297 184.117 13.1875 182.836 13.1875ZM177.023 30.0391C177.023 33.0234 178.32 34.5156 180.914 34.5156C182.883 34.5156 184.438 33.9141 185.578 32.7109C186.719 31.4922 187.289 29.8672 187.289 27.8359V23.9453L184.219 24.0859C181.594 24.1953 179.719 24.7422 178.594 25.7266C178.031 26.2109 177.625 26.8203 177.375 27.5547C177.141 28.2734 177.023 29.1016 177.023 30.0391ZM210.609 37.4688C209.016 37.4688 207.547 37.2266 206.203 36.7422C204.859 36.2422 203.703 35.4609 202.734 34.3984C201.766 33.3359 201.008 31.9766 200.461 30.3203C199.93 28.6484 199.664 26.6328 199.664 24.2734C199.664 21.7109 199.938 19.5703 200.484 17.8516C201.031 16.1172 201.781 14.7266 202.734 13.6797C203.703 12.6328 204.836 11.8906 206.133 11.4531C207.43 11.0156 208.836 10.7969 210.352 10.7969C211.352 10.7969 212.344 10.8984 213.328 11.1016C214.328 11.2891 215.227 11.5859 216.023 11.9922C216.82 12.3984 217.469 12.9141 217.969 13.5391C218.469 14.1484 218.719 14.8672 218.719 15.6953C218.719 16.8047 218.359 17.5859 217.641 18.0391C216.922 18.4922 215.852 18.7188 214.43 18.7188C214.43 17.1406 214.141 15.8281 213.562 14.7812C213 13.7188 211.93 13.1875 210.352 13.1875C209.43 13.1875 208.594 13.3594 207.844 13.7031C207.109 14.0469 206.477 14.6406 205.945 15.4844C205.414 16.3281 205.008 17.4609 204.727 18.8828C204.445 20.3047 204.305 22.0859 204.305 24.2266C204.305 27.6328 204.867 30.1719 205.992 31.8438C207.133 33.5156 208.992 34.3516 211.57 34.3516C213.055 34.3516 214.352 34.0391 215.461 33.4141C216.57 32.7891 217.398 31.9844 217.945 31C218.18 31.1875 218.375 31.4375 218.531 31.75C218.688 32.0625 218.766 32.4375 218.766 32.875C218.766 33.4219 218.594 33.9688 218.25 34.5156C217.922 35.0625 217.414 35.5547 216.727 35.9922C216.055 36.4297 215.203 36.7812 214.172 37.0469C213.156 37.3281 211.969 37.4688 210.609 37.4688ZM240.281 17.7578L236.906 21.5547L243.305 31.0469C244.133 32.3281 244.953 33.3047 245.766 33.9766C246.594 34.6484 247.547 34.9844 248.625 34.9844H248.766V37H248.086C246.695 37 245.547 36.9609 244.641 36.8828C243.75 36.7891 242.977 36.5781 242.32 36.25C241.664 35.9375 241.062 35.4766 240.516 34.8672C239.969 34.2422 239.359 33.3984 238.688 32.3359L233.883 24.8125L230.344 27.4375V31.7734C230.344 33.1016 230.703 33.9688 231.422 34.375C232.141 34.7812 233.094 34.9844 234.281 34.9844H234.422V37H221.508V34.9844H221.883C223.086 34.9844 224.039 34.7656 224.742 34.3281C225.461 33.8906 225.82 32.9609 225.82 31.5391V5.80469C225.82 4.46094 225.453 3.58594 224.719 3.17969C223.984 2.75781 223.039 2.54688 221.883 2.54688H221.508V0.53125H230.344V19.0469C230.344 19.4844 230.336 20.0469 230.32 20.7344C230.305 21.4062 230.281 22.0703 230.25 22.7266C230.234 23.1016 230.219 23.4922 230.203 23.8984C230.188 24.2891 230.172 24.6875 230.156 25.0938L236.156 18.5312C237 17.5781 237.648 16.7578 238.102 16.0703C238.555 15.3828 238.781 14.7734 238.781 14.2422C238.781 13.8203 238.594 13.5547 238.219 13.4453C237.844 13.3359 237.25 13.2812 236.438 13.2812V11.2656H247.031V13.2812C245.922 13.2812 244.828 13.6719 243.75 14.4531C242.688 15.2344 241.531 16.3359 240.281 17.7578Z"/>
</mask>
<path d="M30.0234 11.3125C30.0234 13.3906 29.4688 15.0234 28.3594 16.2109C27.2656 17.3828 25.8359 18.2656 24.0703 18.8594V19.0469C25.1641 19.2344 26.1641 19.5547 27.0703 20.0078C27.9766 20.4453 28.7578 21.0312 29.4141 21.7656C30.0547 22.4844 30.5547 23.3438 30.9141 24.3438C31.2734 25.3438 31.4531 26.4766 31.4531 27.7422C31.4531 33.9141 27.3438 37 19.125 37H4.82812V34.9844H5.4375C6.64062 34.9844 7.59375 34.7656 8.29688 34.3281C9.01562 33.875 9.375 32.9453 9.375 31.5391V8.00781C9.375 6.66406 9.00781 5.78906 8.27344 5.38281C7.53906 4.96094 6.59375 4.75 5.4375 4.75H4.82812V2.73438H17.6953C21.8516 2.73438 24.9453 3.42969 26.9766 4.82031C29.0078 6.19531 30.0234 8.35938 30.0234 11.3125ZM17.4375 5.125H14.2266V17.8516H17.5547C20.3047 17.8516 22.2266 17.3359 23.3203 16.3047C23.8828 15.7891 24.2812 15.1172 24.5156 14.2891C24.7656 13.4609 24.8906 12.4688 24.8906 11.3125C24.8906 8.98438 24.3281 7.36719 23.2031 6.46094C22.6094 5.97656 21.8359 5.63281 20.8828 5.42969C19.9453 5.22656 18.7969 5.125 17.4375 5.125ZM18.9844 20.2422H14.2266V34.6094H18.8906C21.5938 34.6094 23.5078 34.0781 24.6328 33.0156C25.7578 31.9844 26.3203 30.1797 26.3203 27.6016C26.3203 26.3516 26.2031 25.2656 25.9688 24.3438C25.7344 23.4219 25.3359 22.6562 24.7734 22.0469C23.6328 20.8438 21.7031 20.2422 18.9844 20.2422ZM59.4609 24.0859C59.4609 28.6016 58.5 31.9609 56.5781 34.1641C54.6719 36.3672 51.875 37.4688 48.1875 37.4688C44.6562 37.4688 41.9375 36.3672 40.0312 34.1641C39.0781 33.0547 38.3438 31.6641 37.8281 29.9922C37.3125 28.3047 37.0547 26.3359 37.0547 24.0859C37.0547 19.6016 38 16.2656 39.8906 14.0781C41.7969 11.8906 44.6094 10.7969 48.3281 10.7969C51.8906 10.7969 54.6172 11.8828 56.5078 14.0547C57.4766 15.1484 58.2109 16.5312 58.7109 18.2031C59.2109 19.875 59.4609 21.8359 59.4609 24.0859ZM41.6953 24.0859C41.6953 25.8672 41.8125 27.4375 42.0469 28.7969C42.2812 30.1406 42.6641 31.2734 43.1953 32.1953C44.2422 34.0547 45.9375 34.9844 48.2812 34.9844C50.6094 34.9844 52.2969 34.0547 53.3438 32.1953C53.8594 31.2734 54.2266 30.1406 54.4453 28.7969C54.6797 27.4375 54.7969 25.8672 54.7969 24.0859C54.7969 22.3047 54.6797 20.7422 54.4453 19.3984C54.2109 18.0547 53.8359 16.9297 53.3203 16.0234C52.2734 14.2266 50.5781 13.3281 48.2344 13.3281C45.9062 13.3281 44.2188 14.2266 43.1719 16.0234C42.6562 16.9297 42.2812 18.0547 42.0469 19.3984C41.8125 20.7422 41.6953 22.3047 41.6953 24.0859ZM87.1641 24.0859C87.1641 28.6016 86.2031 31.9609 84.2812 34.1641C82.375 36.3672 79.5781 37.4688 75.8906 37.4688C72.3594 37.4688 69.6406 36.3672 67.7344 34.1641C66.7812 33.0547 66.0469 31.6641 65.5312 29.9922C65.0156 28.3047 64.7578 26.3359 64.7578 24.0859C64.7578 19.6016 65.7031 16.2656 67.5938 14.0781C69.5 11.8906 72.3125 10.7969 76.0312 10.7969C79.5938 10.7969 82.3203 11.8828 84.2109 14.0547C85.1797 15.1484 85.9141 16.5312 86.4141 18.2031C86.9141 19.875 87.1641 21.8359 87.1641 24.0859ZM69.3984 24.0859C69.3984 25.8672 69.5156 27.4375 69.75 28.7969C69.9844 30.1406 70.3672 31.2734 70.8984 32.1953C71.9453 34.0547 73.6406 34.9844 75.9844 34.9844C78.3125 34.9844 80 34.0547 81.0469 32.1953C81.5625 31.2734 81.9297 30.1406 82.1484 28.7969C82.3828 27.4375 82.5 25.8672 82.5 24.0859C82.5 22.3047 82.3828 20.7422 82.1484 19.3984C81.9141 18.0547 81.5391 16.9297 81.0234 16.0234C79.9766 14.2266 78.2812 13.3281 75.9375 13.3281C73.6094 13.3281 71.9219 14.2266 70.875 16.0234C70.3594 16.9297 69.9844 18.0547 69.75 19.3984C69.5156 20.7422 69.3984 22.3047 69.3984 24.0859ZM109.453 17.7578L106.078 21.5547L112.477 31.0469C113.305 32.3281 114.125 33.3047 114.938 33.9766C115.766 34.6484 116.719 34.9844 117.797 34.9844H117.938V37H117.258C115.867 37 114.719 36.9609 113.812 36.8828C112.922 36.7891 112.148 36.5781 111.492 36.25C110.836 35.9375 110.234 35.4766 109.688 34.8672C109.141 34.2422 108.531 33.3984 107.859 32.3359L103.055 24.8125L99.5156 27.4375V31.7734C99.5156 33.1016 99.875 33.9688 100.594 34.375C101.312 34.7812 102.266 34.9844 103.453 34.9844H103.594V37H90.6797V34.9844H91.0547C92.2578 34.9844 93.2109 34.7656 93.9141 34.3281C94.6328 33.8906 94.9922 32.9609 94.9922 31.5391V5.80469C94.9922 4.46094 94.625 3.58594 93.8906 3.17969C93.1562 2.75781 92.2109 2.54688 91.0547 2.54688H90.6797V0.53125H99.5156V19.0469C99.5156 19.4844 99.5078 20.0469 99.4922 20.7344C99.4766 21.4062 99.4531 22.0703 99.4219 22.7266C99.4062 23.1016 99.3906 23.4922 99.375 23.8984C99.3594 24.2891 99.3438 24.6875 99.3281 25.0938L105.328 18.5312C106.172 17.5781 106.82 16.7578 107.273 16.0703C107.727 15.3828 107.953 14.7734 107.953 14.2422C107.953 13.8203 107.766 13.5547 107.391 13.4453C107.016 13.3359 106.422 13.2812 105.609 13.2812V11.2656H116.203V13.2812C115.094 13.2812 114 13.6719 112.922 14.4531C111.859 15.2344 110.703 16.3359 109.453 17.7578Z" fill="#F5F5DC" shape-rendering="crispEdges"/>
<path d="M139.641 5.125H134.977V31.5391C134.977 32.9609 135.336 33.8906 136.055 34.3281C136.773 34.7656 137.727 34.9844 138.914 34.9844H140.016V37H125.086V34.9844H126.188C127.375 34.9844 128.328 34.7812 129.047 34.375C129.766 33.9688 130.125 33.1016 130.125 31.7734V5.125H125.531C124.188 5.125 123.227 5.49219 122.648 6.22656C122.086 6.96094 121.734 7.90625 121.594 9.0625L121.336 11.125H118.852L119.086 2.73438H146.109L146.344 11.125H143.859L143.625 9.0625C143.484 7.90625 143.125 6.96094 142.547 6.22656C141.969 5.49219 141 5.125 139.641 5.125ZM161.438 34.9844H162.773V37H148.922V34.9844H149.062C150.266 34.9844 151.219 34.7656 151.922 34.3281C152.641 33.8906 153 32.9609 153 31.5391V16.5625C153 15.2188 152.633 14.3359 151.898 13.9141C151.164 13.4922 150.219 13.2812 149.062 13.2812H148.922V11.2656H156.305L157.219 16.0234H157.453C157.922 14.9609 158.398 14.0391 158.883 13.2578C159.383 12.4766 160.031 11.875 160.828 11.4531C161.625 11.0156 162.695 10.7969 164.039 10.7969C167.492 10.7969 169.219 11.9609 169.219 14.2891C169.219 16.5703 167.727 17.7109 164.742 17.7109C164.742 16.3828 164.555 15.4297 164.18 14.8516C163.805 14.2578 163.148 13.9609 162.211 13.9609C161.617 13.9609 161.086 14.125 160.617 14.4531C159.711 15.1094 159.008 16.1953 158.508 17.7109C158.258 18.3984 158.062 19.1328 157.922 19.9141C157.766 20.6797 157.656 21.4375 157.594 22.1875C157.531 22.9375 157.5 23.6172 157.5 24.2266V31.7734C157.5 33.1016 157.859 33.9688 158.578 34.375C159.297 34.7812 160.25 34.9844 161.438 34.9844ZM182.836 13.1875C181.07 13.1875 179.898 13.6562 179.32 14.5938C178.742 15.5156 178.453 16.7891 178.453 18.4141C177.125 18.4141 176.109 18.1875 175.406 17.7344C174.719 17.2812 174.375 16.5 174.375 15.3906C174.375 14.5625 174.602 13.8594 175.055 13.2812C175.508 12.7031 176.133 12.2266 176.93 11.8516C177.711 11.4922 178.625 11.2266 179.672 11.0547C180.719 10.8828 181.836 10.7969 183.023 10.7969C184.492 10.7969 185.773 10.9453 186.867 11.2422C187.961 11.5234 188.875 11.9922 189.609 12.6484C191.078 13.9609 191.812 16.1094 191.812 19.0938V31.5391C191.812 32.8203 192.031 33.7188 192.469 34.2344C192.906 34.7344 193.68 34.9844 194.789 34.9844H194.93V37H188.438L187.688 32.875H187.289C186.586 33.8125 185.906 34.625 185.25 35.3125C184.594 36 183.844 36.5312 183 36.9062C182.156 37.2812 181.094 37.4688 179.812 37.4688C178.75 37.4688 177.758 37.3125 176.836 37C175.93 36.6875 175.148 36.2188 174.492 35.5938C173.82 34.9531 173.297 34.1562 172.922 33.2031C172.547 32.25 172.359 31.1172 172.359 29.8047C172.359 27.2578 173.266 25.3672 175.078 24.1328C176.891 22.8984 179.633 22.2266 183.305 22.1172L187.289 21.9766V19.0938C187.289 17.875 187.18 16.8281 186.961 15.9531C186.758 15.0625 186.336 14.3828 185.695 13.9141C185.07 13.4297 184.117 13.1875 182.836 13.1875ZM177.023 30.0391C177.023 33.0234 178.32 34.5156 180.914 34.5156C182.883 34.5156 184.438 33.9141 185.578 32.7109C186.719 31.4922 187.289 29.8672 187.289 27.8359V23.9453L184.219 24.0859C181.594 24.1953 179.719 24.7422 178.594 25.7266C178.031 26.2109 177.625 26.8203 177.375 27.5547C177.141 28.2734 177.023 29.1016 177.023 30.0391ZM210.609 37.4688C209.016 37.4688 207.547 37.2266 206.203 36.7422C204.859 36.2422 203.703 35.4609 202.734 34.3984C201.766 33.3359 201.008 31.9766 200.461 30.3203C199.93 28.6484 199.664 26.6328 199.664 24.2734C199.664 21.7109 199.938 19.5703 200.484 17.8516C201.031 16.1172 201.781 14.7266 202.734 13.6797C203.703 12.6328 204.836 11.8906 206.133 11.4531C207.43 11.0156 208.836 10.7969 210.352 10.7969C211.352 10.7969 212.344 10.8984 213.328 11.1016C214.328 11.2891 215.227 11.5859 216.023 11.9922C216.82 12.3984 217.469 12.9141 217.969 13.5391C218.469 14.1484 218.719 14.8672 218.719 15.6953C218.719 16.8047 218.359 17.5859 217.641 18.0391C216.922 18.4922 215.852 18.7188 214.43 18.7188C214.43 17.1406 214.141 15.8281 213.562 14.7812C213 13.7188 211.93 13.1875 210.352 13.1875C209.43 13.1875 208.594 13.3594 207.844 13.7031C207.109 14.0469 206.477 14.6406 205.945 15.4844C205.414 16.3281 205.008 17.4609 204.727 18.8828C204.445 20.3047 204.305 22.0859 204.305 24.2266C204.305 27.6328 204.867 30.1719 205.992 31.8438C207.133 33.5156 208.992 34.3516 211.57 34.3516C213.055 34.3516 214.352 34.0391 215.461 33.4141C216.57 32.7891 217.398 31.9844 217.945 31C218.18 31.1875 218.375 31.4375 218.531 31.75C218.688 32.0625 218.766 32.4375 218.766 32.875C218.766 33.4219 218.594 33.9688 218.25 34.5156C217.922 35.0625 217.414 35.5547 216.727 35.9922C216.055 36.4297 215.203 36.7812 214.172 37.0469C213.156 37.3281 211.969 37.4688 210.609 37.4688ZM240.281 17.7578L236.906 21.5547L243.305 31.0469C244.133 32.3281 244.953 33.3047 245.766 33.9766C246.594 34.6484 247.547 34.9844 248.625 34.9844H248.766V37H248.086C246.695 37 245.547 36.9609 244.641 36.8828C243.75 36.7891 242.977 36.5781 242.32 36.25C241.664 35.9375 241.062 35.4766 240.516 34.8672C239.969 34.2422 239.359 33.3984 238.688 32.3359L233.883 24.8125L230.344 27.4375V31.7734C230.344 33.1016 230.703 33.9688 231.422 34.375C232.141 34.7812 233.094 34.9844 234.281 34.9844H234.422V37H221.508V34.9844H221.883C223.086 34.9844 224.039 34.7656 224.742 34.3281C225.461 33.8906 225.82 32.9609 225.82 31.5391V5.80469C225.82 4.46094 225.453 3.58594 224.719 3.17969C223.984 2.75781 223.039 2.54688 221.883 2.54688H221.508V0.53125H230.344V19.0469C230.344 19.4844 230.336 20.0469 230.32 20.7344C230.305 21.4062 230.281 22.0703 230.25 22.7266C230.234 23.1016 230.219 23.4922 230.203 23.8984C230.188 24.2891 230.172 24.6875 230.156 25.0938L236.156 18.5312C237 17.5781 237.648 16.7578 238.102 16.0703C238.555 15.3828 238.781 14.7734 238.781 14.2422C238.781 13.8203 238.594 13.5547 238.219 13.4453C237.844 13.3359 237.25 13.2812 236.438 13.2812V11.2656H247.031V13.2812C245.922 13.2812 244.828 13.6719 243.75 14.4531C242.688 15.2344 241.531 16.3359 240.281 17.7578Z" fill="#E7C89E" shape-rendering="crispEdges"/>
<path d="M28.3594 16.2109L27.6286 15.5283L27.6283 15.5286L28.3594 16.2109ZM24.0703 18.8594L23.7516 17.9115L23.0703 18.1406V18.8594H24.0703ZM24.0703 19.0469H23.0703V19.89L23.9013 20.0325L24.0703 19.0469ZM27.0703 20.0078L26.6231 20.9023L26.6356 20.9084L27.0703 20.0078ZM29.4141 21.7656L30.1606 21.1003L30.1597 21.0993L29.4141 21.7656ZM4.82812 37H3.82812V38H4.82812V37ZM4.82812 34.9844V33.9844H3.82812V34.9844H4.82812ZM8.29688 34.3281L8.82519 35.1772L8.83018 35.1741L8.29688 34.3281ZM8.27344 5.38281L7.77531 6.24992L7.78231 6.25394L7.78938 6.25785L8.27344 5.38281ZM4.82812 4.75H3.82812V5.75H4.82812V4.75ZM4.82812 2.73438V1.73438H3.82812V2.73438H4.82812ZM26.9766 4.82031L26.4116 5.64548L26.416 5.64842L26.9766 4.82031ZM14.2266 5.125V4.125H13.2266V5.125H14.2266ZM14.2266 17.8516H13.2266V18.8516H14.2266V17.8516ZM23.3203 16.3047L22.6445 15.5675L22.6343 15.5771L23.3203 16.3047ZM24.5156 14.2891L23.5583 14.0001L23.5558 14.0084L23.5534 14.0167L24.5156 14.2891ZM23.2031 6.46094L22.571 7.23582L22.5758 7.23969L23.2031 6.46094ZM20.8828 5.42969L20.6711 6.40702L20.6744 6.40772L20.8828 5.42969ZM14.2266 20.2422V19.2422H13.2266V20.2422H14.2266ZM14.2266 34.6094H13.2266V35.6094H14.2266V34.6094ZM24.6328 33.0156L23.9571 32.2785L23.9516 32.2835L23.9462 32.2886L24.6328 33.0156ZM24.7734 22.0469L25.5083 21.3685L25.4991 21.3589L24.7734 22.0469ZM29.0234 11.3125C29.0234 13.2105 28.5207 14.5734 27.6286 15.5283L29.0901 16.8936C30.4168 15.4735 31.0234 13.5708 31.0234 11.3125H29.0234ZM27.6283 15.5286C26.665 16.5608 25.3855 17.3621 23.7516 17.9115L24.3891 19.8072C26.2864 19.1692 27.8663 18.2048 29.0904 16.8933L27.6283 15.5286ZM23.0703 18.8594V19.0469H25.0703V18.8594H23.0703ZM23.9013 20.0325C24.9075 20.205 25.8125 20.497 26.6231 20.9022L27.5175 19.1134C26.5156 18.6124 25.4206 18.2638 24.2393 18.0613L23.9013 20.0325ZM26.6356 20.9084C27.4265 21.2902 28.1014 21.7974 28.6684 22.432L30.1597 21.0993C29.4142 20.2651 28.5267 19.6004 27.5051 19.1073L26.6356 20.9084ZM28.6675 22.431C29.2146 23.0447 29.6524 23.7899 29.973 24.6819L31.8551 24.0056C31.457 22.8976 30.8948 21.924 30.1606 21.1003L28.6675 22.431ZM29.973 24.6819C30.2867 25.555 30.4531 26.5704 30.4531 27.7422H32.4531C32.4531 26.3827 32.2602 25.1325 31.8551 24.0056L29.973 24.6819ZM30.4531 27.7422C30.4531 30.5846 29.5219 32.5707 27.7706 33.8859C25.9654 35.2415 23.138 36 19.125 36V38C23.3307 38 26.6674 37.2155 28.9716 35.4852C31.3296 33.7144 32.4531 31.0716 32.4531 27.7422H30.4531ZM19.125 36H4.82812V38H19.125V36ZM5.82812 37V34.9844H3.82812V37H5.82812ZM4.82812 35.9844H5.4375V33.9844H4.82812V35.9844ZM5.4375 35.9844C6.74758 35.9844 7.9072 35.7484 8.82518 35.1772L7.76857 33.4791C7.2803 33.7829 6.53367 33.9844 5.4375 33.9844V35.9844ZM8.83018 35.1741C9.99183 34.4417 10.375 33.0581 10.375 31.5391H8.375C8.375 32.8325 8.03942 33.3083 7.76357 33.4822L8.83018 35.1741ZM10.375 31.5391V8.00781H8.375V31.5391H10.375ZM10.375 8.00781C10.375 6.53327 9.97206 5.17966 8.7575 4.50778L7.78938 6.25785C8.04357 6.39846 8.375 6.79486 8.375 8.00781H10.375ZM8.77156 4.51571C7.84016 3.98065 6.70737 3.75 5.4375 3.75V5.75C6.48013 5.75 7.23796 5.94123 7.77531 6.24992L8.77156 4.51571ZM5.4375 3.75H4.82812V5.75H5.4375V3.75ZM5.82812 4.75V2.73438H3.82812V4.75H5.82812ZM4.82812 3.73438H17.6953V1.73438H4.82812V3.73438ZM17.6953 3.73438C21.7743 3.73438 24.6261 4.42307 26.4117 5.64546L27.5415 3.99516C25.2645 2.4363 21.9288 1.73438 17.6953 1.73438V3.73438ZM26.416 5.64842C28.114 6.79782 29.0234 8.61377 29.0234 11.3125H31.0234C31.0234 8.10498 29.9017 5.59281 27.5371 3.9922L26.416 5.64842ZM17.4375 4.125H14.2266V6.125H17.4375V4.125ZM13.2266 5.125V17.8516H15.2266V5.125H13.2266ZM14.2266 18.8516H17.5547V16.8516H14.2266V18.8516ZM17.5547 18.8516C20.3696 18.8516 22.624 18.3357 24.0063 17.0323L22.6343 15.5771C21.8292 16.3362 20.2397 16.8516 17.5547 16.8516V18.8516ZM23.996 17.0418C24.7122 16.3854 25.1996 15.5446 25.4778 14.5614L23.5534 14.0167C23.3629 14.6898 23.0534 15.1928 22.6446 15.5675L23.996 17.0418ZM25.473 14.5781C25.7589 13.6308 25.8906 12.5359 25.8906 11.3125H23.8906C23.8906 12.4016 23.7723 13.2911 23.5583 14.0001L25.473 14.5781ZM25.8906 11.3125C25.8906 8.86561 25.3043 6.86948 23.8305 5.68218L22.5758 7.23969C23.3519 7.86489 23.8906 9.10314 23.8906 11.3125H25.8906ZM23.8353 5.68607C23.0895 5.07772 22.1586 4.67913 21.0912 4.45165L20.6744 6.40772C21.5132 6.5865 22.1292 6.87541 22.571 7.2358L23.8353 5.68607ZM21.0946 4.45236C20.0654 4.22937 18.8412 4.125 17.4375 4.125V6.125C18.7526 6.125 19.8253 6.22375 20.6711 6.40701L21.0946 4.45236ZM18.9844 19.2422H14.2266V21.2422H18.9844V19.2422ZM13.2266 20.2422V34.6094H15.2266V20.2422H13.2266ZM14.2266 35.6094H18.8906V33.6094H14.2266V35.6094ZM18.8906 35.6094C21.674 35.6094 23.9119 35.072 25.3194 33.7426L23.9462 32.2886C23.1037 33.0843 21.5135 33.6094 18.8906 33.6094V35.6094ZM25.3085 33.7528C26.7451 32.4359 27.3203 30.2759 27.3203 27.6016H25.3203C25.3203 30.0834 24.7705 31.5328 23.9571 32.2785L25.3085 33.7528ZM27.3203 27.6016C27.3203 26.2928 27.198 25.1204 26.9379 24.0974L24.9996 24.5901C25.2082 25.4109 25.3203 26.4103 25.3203 27.6016H27.3203ZM26.9379 24.0974C26.6686 23.0382 26.1992 22.1171 25.5082 21.3686L24.0386 22.7252C24.4727 23.1954 24.8001 23.8056 24.9996 24.5901L26.9379 24.0974ZM25.4991 21.3589C24.0787 19.8606 21.809 19.2422 18.9844 19.2422V21.2422C21.5973 21.2422 23.1869 21.8269 24.0477 22.7349L25.4991 21.3589ZM56.5781 34.1641L55.8245 33.5067L55.8219 33.5097L56.5781 34.1641ZM40.0312 34.1641L39.2727 34.8157L39.275 34.8184L40.0312 34.1641ZM37.8281 29.9922L36.8718 30.2844L36.8725 30.2869L37.8281 29.9922ZM39.8906 14.0781L39.1367 13.4211L39.134 13.4242L39.8906 14.0781ZM56.5078 14.0547L55.7535 14.7113L55.7592 14.7177L56.5078 14.0547ZM42.0469 28.7969L41.0614 28.9668L41.0617 28.9687L42.0469 28.7969ZM43.1953 32.1953L44.0667 31.7047L44.0617 31.696L43.1953 32.1953ZM53.3438 32.1953L54.2151 32.6859L54.2165 32.6835L53.3438 32.1953ZM54.4453 28.7969L53.4598 28.627L53.4583 28.6362L54.4453 28.7969ZM53.3203 16.0234L54.1895 15.5289L54.1844 15.52L53.3203 16.0234ZM43.1719 16.0234L42.3078 15.52L42.3027 15.5289L43.1719 16.0234ZM58.4609 24.0859C58.4609 28.4859 57.5207 31.5624 55.8246 33.5067L57.3317 34.8214C59.4793 32.3595 60.4609 28.7172 60.4609 24.0859H58.4609ZM55.8219 33.5097C54.1539 35.4375 51.6678 36.4688 48.1875 36.4688V38.4688C52.0822 38.4688 55.1898 37.2969 57.3343 34.8184L55.8219 33.5097ZM48.1875 36.4688C44.8793 36.4688 42.4638 35.4471 40.7875 33.5097L39.275 34.8184C41.4112 37.2873 44.4332 38.4688 48.1875 38.4688V36.4688ZM40.7898 33.5124C39.9419 32.5256 39.2667 31.2634 38.7837 29.6975L36.8725 30.2869C37.4208 32.0647 38.2143 33.5838 39.2727 34.8157L40.7898 33.5124ZM38.7845 29.7C38.3045 28.1291 38.0547 26.2627 38.0547 24.0859H36.0547C36.0547 26.4091 36.3205 28.4803 36.8718 30.2844L38.7845 29.7ZM38.0547 24.0859C38.0547 19.7154 38.9801 16.6609 40.6472 14.732L39.134 13.4242C37.0199 15.8704 36.0547 19.4878 36.0547 24.0859H38.0547ZM40.6445 14.7351C42.3102 12.8236 44.8112 11.7969 48.3281 11.7969V9.79688C44.4075 9.79688 41.2835 10.9576 39.1367 13.4211L40.6445 14.7351ZM48.3281 11.7969C51.6758 11.7969 54.0968 12.808 55.7536 14.7113L57.2621 13.3981C55.1376 10.9576 52.1055 9.79688 48.3281 9.79688V11.7969ZM55.7592 14.7177C56.6147 15.6836 57.2865 16.9303 57.7529 18.4897L59.669 17.9166C59.1354 16.1322 58.3384 14.6133 57.2564 13.3917L55.7592 14.7177ZM57.7529 18.4897C58.2184 20.0462 58.4609 21.9065 58.4609 24.0859H60.4609C60.4609 21.7654 60.2035 19.7038 59.669 17.9166L57.7529 18.4897ZM40.6953 24.0859C40.6953 25.9087 40.815 27.5379 41.0614 28.9668L43.0323 28.627C42.81 27.3371 42.6953 25.8257 42.6953 24.0859H40.6953ZM41.0617 28.9687C41.3108 30.3968 41.7254 31.6473 42.3289 32.6946L44.0617 31.696C43.6028 30.8996 43.2517 29.8845 43.032 28.6251L41.0617 28.9687ZM42.3239 32.6859C43.5683 34.896 45.6197 35.9844 48.2812 35.9844V33.9844C46.2553 33.9844 44.9161 33.2134 44.0667 31.7047L42.3239 32.6859ZM48.2812 35.9844C50.9303 35.9844 52.9722 34.8935 54.2151 32.6859L52.4724 31.7047C51.6215 33.2159 50.2884 33.9844 48.2812 33.9844V35.9844ZM54.2165 32.6835C54.8028 31.6353 55.2 30.3847 55.4323 28.9576L53.4583 28.6362C53.2531 29.8965 52.916 30.9116 52.471 31.7072L54.2165 32.6835ZM55.4308 28.9668C55.6771 27.5379 55.7969 25.9087 55.7969 24.0859H53.7969C53.7969 25.8257 53.6822 27.3371 53.4599 28.627L55.4308 28.9668ZM55.7969 24.0859C55.7969 22.2635 55.6772 20.6412 55.4304 19.2266L53.4602 19.5703C53.6822 20.8431 53.7969 22.3459 53.7969 24.0859H55.7969ZM55.4304 19.2266C55.182 17.8025 54.7766 16.5608 54.1895 15.5289L52.4511 16.518C52.8953 17.2986 53.2398 18.3069 53.4602 19.5703L55.4304 19.2266ZM54.1844 15.52C52.9326 13.3715 50.8797 12.3281 48.2344 12.3281V14.3281C50.2766 14.3281 51.6143 15.0817 52.4563 16.5268L54.1844 15.52ZM48.2344 12.3281C45.6016 12.3281 43.5582 13.3739 42.3078 15.52L44.0359 16.5268C44.8793 15.0793 46.2109 14.3281 48.2344 14.3281V12.3281ZM42.3027 15.5289C41.7156 16.5608 41.3101 17.8025 41.0617 19.2266L43.032 19.5703C43.2524 18.3069 43.5969 17.2986 44.041 16.518L42.3027 15.5289ZM41.0617 19.2266C40.815 20.6412 40.6953 22.2635 40.6953 24.0859H42.6953C42.6953 22.3459 42.81 20.8431 43.032 19.5703L41.0617 19.2266ZM84.2812 34.1641L83.5277 33.5067L83.525 33.5097L84.2812 34.1641ZM67.7344 34.1641L66.9759 34.8157L66.9782 34.8184L67.7344 34.1641ZM65.5312 29.9922L64.5749 30.2844L64.5757 30.2869L65.5312 29.9922ZM67.5938 14.0781L66.8398 13.4211L66.8372 13.4242L67.5938 14.0781ZM84.2109 14.0547L83.4567 14.7113L83.4623 14.7177L84.2109 14.0547ZM69.75 28.7969L68.7645 28.9668L68.7649 28.9687L69.75 28.7969ZM70.8984 32.1953L71.7699 31.7047L71.7649 31.696L70.8984 32.1953ZM81.0469 32.1953L81.9183 32.6859L81.9196 32.6835L81.0469 32.1953ZM82.1484 28.7969L81.1629 28.627L81.1614 28.6362L82.1484 28.7969ZM81.0234 16.0234L81.8926 15.5289L81.8875 15.52L81.0234 16.0234ZM70.875 16.0234L70.0109 15.52L70.0058 15.5289L70.875 16.0234ZM86.1641 24.0859C86.1641 28.4859 85.2238 31.5624 83.5277 33.5067L85.0348 34.8214C87.1824 32.3595 88.1641 28.7172 88.1641 24.0859H86.1641ZM83.525 33.5097C81.8571 35.4375 79.3709 36.4688 75.8906 36.4688V38.4688C79.7853 38.4688 82.8929 37.2969 85.0375 34.8184L83.525 33.5097ZM75.8906 36.4688C72.5824 36.4688 70.1669 35.4471 68.4906 33.5097L66.9782 34.8184C69.1143 37.2873 72.1363 38.4688 75.8906 38.4688V36.4688ZM68.4929 33.5124C67.645 32.5256 66.9698 31.2634 66.4868 29.6975L64.5757 30.2869C65.124 32.0647 65.9175 33.5838 66.9759 34.8157L68.4929 33.5124ZM66.4876 29.7C66.0076 28.1291 65.7578 26.2627 65.7578 24.0859H63.7578C63.7578 26.4091 64.0237 28.4803 64.5749 30.2844L66.4876 29.7ZM65.7578 24.0859C65.7578 19.7154 66.6832 16.6609 68.3503 14.732L66.8372 13.4242C64.723 15.8704 63.7578 19.4878 63.7578 24.0859H65.7578ZM68.3477 14.7351C70.0134 12.8236 72.5144 11.7969 76.0312 11.7969V9.79688C72.1106 9.79688 68.9866 10.9576 66.8398 13.4211L68.3477 14.7351ZM76.0312 11.7969C79.3789 11.7969 81.7999 12.808 83.4567 14.7113L84.9652 13.3981C82.8407 10.9576 79.8086 9.79688 76.0312 9.79688V11.7969ZM83.4623 14.7177C84.3178 15.6836 84.9896 16.9303 85.456 18.4897L87.3721 17.9166C86.8385 16.1322 86.0415 14.6133 84.9595 13.3917L83.4623 14.7177ZM85.456 18.4897C85.9215 20.0462 86.1641 21.9065 86.1641 24.0859H88.1641C88.1641 21.7654 87.9066 19.7038 87.3721 17.9166L85.456 18.4897ZM68.3984 24.0859C68.3984 25.9087 68.5182 27.5379 68.7645 28.9668L70.7355 28.627C70.5131 27.3371 70.3984 25.8257 70.3984 24.0859H68.3984ZM68.7649 28.9687C69.014 30.3968 69.4285 31.6473 70.032 32.6946L71.7649 31.696C71.3059 30.8996 70.9548 29.8845 70.7351 28.6251L68.7649 28.9687ZM70.0271 32.6859C71.2714 34.896 73.3228 35.9844 75.9844 35.9844V33.9844C73.9585 33.9844 72.6192 33.2134 71.7698 31.7047L70.0271 32.6859ZM75.9844 35.9844C78.6335 35.9844 80.6753 34.8935 81.9183 32.6859L80.1755 31.7047C79.3247 33.2159 77.9915 33.9844 75.9844 33.9844V35.9844ZM81.9196 32.6835C82.5059 31.6353 82.9031 30.3847 83.1354 28.9576L81.1614 28.6362C80.9563 29.8965 80.6191 30.9116 80.1741 31.7072L81.9196 32.6835ZM83.1339 28.9668C83.3803 27.5379 83.5 25.9087 83.5 24.0859H81.5C81.5 25.8257 81.3854 27.3371 81.163 28.627L83.1339 28.9668ZM83.5 24.0859C83.5 22.2635 83.3803 20.6412 83.1336 19.2266L81.1633 19.5703C81.3853 20.8431 81.5 22.3459 81.5 24.0859H83.5ZM83.1336 19.2266C82.8852 17.8025 82.4797 16.5608 81.8926 15.5289L80.1543 16.518C80.5984 17.2986 80.943 18.3069 81.1633 19.5703L83.1336 19.2266ZM81.8875 15.52C80.6357 13.3715 78.5828 12.3281 75.9375 12.3281V14.3281C77.9797 14.3281 79.3174 15.0817 80.1594 16.5268L81.8875 15.52ZM75.9375 12.3281C73.3047 12.3281 71.2613 13.3739 70.0109 15.52L71.7391 16.5268C72.5824 15.0793 73.914 14.3281 75.9375 14.3281V12.3281ZM70.0058 15.5289C69.4188 16.5608 69.0133 17.8025 68.7649 19.2266L70.7351 19.5703C70.9555 18.3069 71.3 17.2986 71.7442 16.518L70.0058 15.5289ZM68.7649 19.2266C68.5181 20.6412 68.3984 22.2635 68.3984 24.0859H70.3984C70.3984 22.3459 70.5131 20.8431 70.7351 19.5703L68.7649 19.2266ZM109.453 17.7578L110.201 18.4222L110.204 18.4181L109.453 17.7578ZM106.078 21.5547L105.331 20.8903L104.815 21.4702L105.249 22.1136L106.078 21.5547ZM112.477 31.0469L113.316 30.504L113.311 30.4959L113.306 30.4879L112.477 31.0469ZM114.938 33.9766L114.3 34.7472L114.307 34.7531L114.938 33.9766ZM117.938 34.9844H118.938V33.9844H117.938V34.9844ZM117.938 37V38H118.938V37H117.938ZM113.812 36.8828L113.708 37.8773L113.717 37.8783L113.727 37.8791L113.812 36.8828ZM111.492 36.25L111.939 35.3556L111.931 35.3513L111.922 35.3471L111.492 36.25ZM109.688 34.8672L108.935 35.5257L108.943 35.5351L109.688 34.8672ZM107.859 32.3359L108.705 31.8015L108.702 31.7977L107.859 32.3359ZM103.055 24.8125L103.897 24.2743L103.32 23.3705L102.459 24.0093L103.055 24.8125ZM99.5156 27.4375L98.9199 26.6343L98.5156 26.9342V27.4375H99.5156ZM103.594 34.9844H104.594V33.9844H103.594V34.9844ZM103.594 37V38H104.594V37H103.594ZM90.6797 37H89.6797V38H90.6797V37ZM90.6797 34.9844V33.9844H89.6797V34.9844H90.6797ZM93.9141 34.3281L93.3941 33.4739L93.3858 33.4791L93.9141 34.3281ZM93.8906 3.17969L93.3925 4.04679L93.3995 4.05081L93.4066 4.05472L93.8906 3.17969ZM90.6797 2.54688H89.6797V3.54688H90.6797V2.54688ZM90.6797 0.53125V-0.46875H89.6797V0.53125H90.6797ZM99.5156 0.53125H100.516V-0.46875H99.5156V0.53125ZM99.4922 20.7344L100.492 20.7576L100.492 20.7571L99.4922 20.7344ZM99.4219 22.7266L98.423 22.679L98.4227 22.6849L99.4219 22.7266ZM99.375 23.8984L100.374 23.9384L100.374 23.9369L99.375 23.8984ZM99.3281 25.0938L98.3289 25.0553L98.2239 27.7834L100.066 25.7685L99.3281 25.0938ZM105.328 18.5312L106.066 19.206L106.072 19.2001L106.077 19.1941L105.328 18.5312ZM105.609 13.2812H104.609V14.2812H105.609V13.2812ZM105.609 11.2656V10.2656H104.609V11.2656H105.609ZM116.203 11.2656H117.203V10.2656H116.203V11.2656ZM116.203 13.2812V14.2812H117.203V13.2812H116.203ZM112.922 14.4531L112.335 13.6434L112.329 13.6475L112.922 14.4531ZM108.706 17.0934L105.331 20.8903L106.826 22.2191L110.201 18.4222L108.706 17.0934ZM105.249 22.1136L111.647 31.6058L113.306 30.4879L106.907 20.9957L105.249 22.1136ZM111.637 31.5897C112.498 32.922 113.382 33.9882 114.3 34.7472L115.575 33.2059C114.868 32.6212 114.112 31.7343 113.316 30.504L111.637 31.5897ZM114.307 34.7531C115.316 35.5713 116.492 35.9844 117.797 35.9844V33.9844C116.945 33.9844 116.215 33.7256 115.568 33.2L114.307 34.7531ZM117.797 35.9844H117.938V33.9844H117.797V35.9844ZM116.938 34.9844V37H118.938V34.9844H116.938ZM117.938 36H117.258V38H117.938V36ZM117.258 36C115.883 36 114.765 35.9612 113.898 35.8865L113.727 37.8791C114.672 37.9606 115.852 38 117.258 38V36ZM113.917 35.8883C113.12 35.8044 112.468 35.6197 111.939 35.3556L111.045 37.1444C111.829 37.5366 112.723 37.7737 113.708 37.8773L113.917 35.8883ZM111.922 35.3471C111.399 35.0982 110.902 34.7227 110.432 34.1993L108.943 35.5351C109.567 36.2304 110.273 36.7768 111.062 37.1529L111.922 35.3471ZM110.44 34.2087C109.94 33.6369 109.361 32.8401 108.705 31.8015L107.014 32.8704C107.701 33.9568 108.341 34.8475 108.935 35.5257L110.44 34.2087ZM108.702 31.7977L103.897 24.2743L102.212 25.3507L107.017 32.8742L108.702 31.7977ZM102.459 24.0093L98.9199 26.6343L100.111 28.2407L103.65 25.6157L102.459 24.0093ZM98.5156 27.4375V31.7734H100.516V27.4375H98.5156ZM98.5156 31.7734C98.5156 33.2297 98.9088 34.5713 100.102 35.2456L101.086 33.5044C100.841 33.3662 100.516 32.9734 100.516 31.7734H98.5156ZM100.102 35.2456C101.022 35.7658 102.164 35.9844 103.453 35.9844V33.9844C102.367 33.9844 101.603 33.7967 101.086 33.5044L100.102 35.2456ZM103.453 35.9844H103.594V33.9844H103.453V35.9844ZM102.594 34.9844V37H104.594V34.9844H102.594ZM103.594 36H90.6797V38H103.594V36ZM91.6797 37V34.9844H89.6797V37H91.6797ZM90.6797 35.9844H91.0547V33.9844H90.6797V35.9844ZM91.0547 35.9844C92.3648 35.9844 93.5244 35.7484 94.4424 35.1772L93.3858 33.4791C92.8975 33.7829 92.1509 33.9844 91.0547 33.9844V35.9844ZM94.434 35.1823C95.6135 34.4644 95.9922 33.0639 95.9922 31.5391H93.9922C93.9922 32.858 93.6522 33.3169 93.3941 33.4739L94.434 35.1823ZM95.9922 31.5391V5.80469H93.9922V31.5391H95.9922ZM95.9922 5.80469C95.9922 4.33014 95.5892 2.97654 94.3747 2.30465L93.4066 4.05472C93.6608 4.19534 93.9922 4.59173 93.9922 5.80469H95.9922ZM94.3887 2.31258C93.4573 1.77752 92.3246 1.54688 91.0547 1.54688V3.54688C92.0973 3.54688 92.8552 3.7381 93.3925 4.04679L94.3887 2.31258ZM91.0547 1.54688H90.6797V3.54688H91.0547V1.54688ZM91.6797 2.54688V0.53125H89.6797V2.54688H91.6797ZM90.6797 1.53125H99.5156V-0.46875H90.6797V1.53125ZM98.5156 0.53125V19.0469H100.516V0.53125H98.5156ZM98.5156 19.0469C98.5156 19.4738 98.508 20.028 98.4924 20.7117L100.492 20.7571C100.508 20.0658 100.516 19.4949 100.516 19.0469H98.5156ZM98.4925 20.7111C98.477 21.3751 98.4539 22.031 98.423 22.679L100.421 22.7741C100.452 22.1096 100.476 21.4374 100.492 20.7576L98.4925 20.7111ZM98.4227 22.6849C98.4071 23.0611 98.3914 23.4528 98.3757 23.86L100.374 23.9369C100.39 23.5316 100.405 23.142 100.421 22.7682L98.4227 22.6849ZM98.3758 23.8585C98.3602 24.2496 98.3445 24.6486 98.3289 25.0553L100.327 25.1322C100.343 24.7264 100.359 24.3285 100.374 23.9384L98.3758 23.8585ZM100.066 25.7685L106.066 19.206L104.59 17.8565L98.5901 24.419L100.066 25.7685ZM106.077 19.1941C106.937 18.2224 107.619 17.3628 108.108 16.6206L106.438 15.52C106.021 16.1528 105.407 16.9338 104.579 17.8684L106.077 19.1941ZM108.108 16.6206C108.614 15.8529 108.953 15.0492 108.953 14.2422H106.953C106.953 14.4976 106.839 14.9127 106.438 15.52L108.108 16.6206ZM108.953 14.2422C108.953 13.8859 108.873 13.4953 108.629 13.1499C108.38 12.797 108.03 12.5901 107.671 12.4853L107.111 14.4053C107.122 14.4085 107.108 14.4062 107.082 14.3887C107.054 14.3701 107.022 14.3413 106.996 14.3032C106.939 14.2234 106.953 14.1766 106.953 14.2422H108.953ZM107.671 12.4853C107.151 12.3338 106.437 12.2812 105.609 12.2812V14.2812C106.406 14.2812 106.88 14.338 107.111 14.4053L107.671 12.4853ZM106.609 13.2812V11.2656H104.609V13.2812H106.609ZM105.609 12.2656H116.203V10.2656H105.609V12.2656ZM115.203 11.2656V13.2812H117.203V11.2656H115.203ZM116.203 12.2812C114.844 12.2812 113.549 12.7638 112.335 13.6434L113.509 15.2629C114.451 14.5799 115.344 14.2812 116.203 14.2812V12.2812ZM112.329 13.6475C111.19 14.4853 109.981 15.6429 108.702 17.0976L110.204 18.4181C111.425 17.029 112.529 15.9834 113.514 15.2588L112.329 13.6475ZM134.977 5.125V4.125H133.977V5.125H134.977ZM140.016 34.9844H141.016V33.9844H140.016V34.9844ZM140.016 37V38H141.016V37H140.016ZM125.086 37H124.086V38H125.086V37ZM125.086 34.9844V33.9844H124.086V34.9844H125.086ZM130.125 5.125H131.125V4.125H130.125V5.125ZM122.648 6.22656L121.863 5.60795L121.855 5.61849L122.648 6.22656ZM121.594 9.0625L122.586 9.18654L122.586 9.18323L121.594 9.0625ZM121.336 11.125V12.125H122.219L122.328 11.249L121.336 11.125ZM118.852 11.125L117.852 11.0971L117.823 12.125H118.852V11.125ZM119.086 2.73438V1.73438H118.113L118.086 2.70645L119.086 2.73438ZM146.109 2.73438L147.109 2.70645L147.082 1.73438H146.109V2.73438ZM146.344 11.125V12.125H147.372L147.343 11.0971L146.344 11.125ZM143.859 11.125L142.866 11.2379L142.967 12.125H143.859V11.125ZM143.625 9.0625L144.619 8.94959L144.618 8.94177L143.625 9.0625ZM139.641 4.125H134.977V6.125H139.641V4.125ZM133.977 5.125V31.5391H135.977V5.125H133.977ZM133.977 31.5391C133.977 33.0639 134.355 34.4644 135.535 35.1823L136.575 33.4739C136.317 33.3169 135.977 32.858 135.977 31.5391H133.977ZM135.535 35.1823C136.462 35.7467 137.615 35.9844 138.914 35.9844V33.9844C137.838 33.9844 137.085 33.7846 136.575 33.4739L135.535 35.1823ZM138.914 35.9844H140.016V33.9844H138.914V35.9844ZM139.016 34.9844V37H141.016V34.9844H139.016ZM140.016 36H125.086V38H140.016V36ZM126.086 37V34.9844H124.086V37H126.086ZM125.086 35.9844H126.188V33.9844H125.086V35.9844ZM126.188 35.9844C127.476 35.9844 128.618 35.7658 129.539 35.2456L128.555 33.5044C128.038 33.7967 127.274 33.9844 126.188 33.9844V35.9844ZM129.539 35.2456C130.732 34.5713 131.125 33.2297 131.125 31.7734H129.125C129.125 32.9734 128.799 33.3662 128.555 33.5044L129.539 35.2456ZM131.125 31.7734V5.125H129.125V31.7734H131.125ZM130.125 4.125H125.531V6.125H130.125V4.125ZM125.531 4.125C124.021 4.125 122.703 4.5407 121.863 5.608L123.434 6.84512C123.75 6.44367 124.354 6.125 125.531 6.125V4.125ZM121.855 5.61849C121.159 6.52699 120.758 7.6536 120.601 8.94177L122.586 9.18323C122.711 8.1589 123.013 7.39489 123.442 6.83464L121.855 5.61849ZM120.601 8.93847L120.344 11.001L122.328 11.249L122.586 9.18653L120.601 8.93847ZM121.336 10.125H118.852V12.125H121.336V10.125ZM119.851 11.1529L120.086 2.7623L118.086 2.70645L117.852 11.0971L119.851 11.1529ZM119.086 3.73438H146.109V1.73438H119.086V3.73438ZM145.11 2.7623L145.344 11.1529L147.343 11.0971L147.109 2.70645L145.11 2.7623ZM146.344 10.125H143.859V12.125H146.344V10.125ZM144.853 11.0121L144.619 8.94959L142.631 9.17541L142.866 11.2379L144.853 11.0121ZM144.618 8.94177C144.46 7.64823 144.049 6.51778 143.333 5.608L141.761 6.84512C142.201 7.40409 142.508 8.16427 142.632 9.18323L144.618 8.94177ZM143.333 5.608C142.49 4.53815 141.162 4.125 139.641 4.125V6.125C140.838 6.125 141.447 6.44622 141.761 6.84512L143.333 5.608ZM162.773 34.9844H163.773V33.9844H162.773V34.9844ZM162.773 37V38H163.773V37H162.773ZM148.922 37H147.922V38H148.922V37ZM148.922 34.9844V33.9844H147.922V34.9844H148.922ZM151.922 34.3281L151.402 33.4739L151.394 33.4791L151.922 34.3281ZM148.922 13.2812H147.922V14.2812H148.922V13.2812ZM148.922 11.2656V10.2656H147.922V11.2656H148.922ZM156.305 11.2656L157.287 11.077L157.131 10.2656H156.305V11.2656ZM157.219 16.0234L156.237 16.2121L156.393 17.0234H157.219V16.0234ZM157.453 16.0234V17.0234H158.105L158.368 16.4271L157.453 16.0234ZM158.883 13.2578L158.041 12.7188L158.037 12.7248L158.033 12.7309L158.883 13.2578ZM160.828 11.4531L161.296 12.3369L161.303 12.3334L161.309 12.3297L160.828 11.4531ZM164.742 17.7109H163.742V18.7109H164.742V17.7109ZM164.18 14.8516L163.334 15.3856L163.341 15.3958L164.18 14.8516ZM160.617 14.4531L160.044 13.6339L160.037 13.6385L160.031 13.6432L160.617 14.4531ZM158.508 17.7109L159.448 18.0527L159.453 18.0385L159.457 18.0242L158.508 17.7109ZM157.922 19.9141L158.902 20.114L158.904 20.1026L158.906 20.0912L157.922 19.9141ZM161.438 35.9844H162.773V33.9844H161.438V35.9844ZM161.773 34.9844V37H163.773V34.9844H161.773ZM162.773 36H148.922V38H162.773V36ZM149.922 37V34.9844H147.922V37H149.922ZM148.922 35.9844H149.062V33.9844H148.922V35.9844ZM149.062 35.9844C150.373 35.9844 151.532 35.7484 152.45 35.1772L151.394 33.4791C150.905 33.7829 150.159 33.9844 149.062 33.9844V35.9844ZM152.442 35.1823C153.621 34.4644 154 33.0639 154 31.5391H152C152 32.858 151.66 33.3169 151.402 33.4739L152.442 35.1823ZM154 31.5391V16.5625H152V31.5391H154ZM154 16.5625C154 15.0839 153.596 13.7358 152.397 13.047L151.4 14.7812C151.67 14.9361 152 15.3536 152 16.5625H154ZM152.397 13.047C151.465 12.5119 150.332 12.2812 149.062 12.2812V14.2812C150.105 14.2812 150.863 14.4725 151.4 14.7812L152.397 13.047ZM149.062 12.2812H148.922V14.2812H149.062V12.2812ZM149.922 13.2812V11.2656H147.922V13.2812H149.922ZM148.922 12.2656H156.305V10.2656H148.922V12.2656ZM155.323 11.4543L156.237 16.2121L158.201 15.8348L157.287 11.077L155.323 11.4543ZM157.219 17.0234H157.453V15.0234H157.219V17.0234ZM158.368 16.4271C158.823 15.3966 159.278 14.5178 159.733 13.7848L158.033 12.7309C157.519 13.5604 157.021 14.5253 156.538 15.6198L158.368 16.4271ZM159.725 13.7969C160.135 13.1565 160.656 12.6757 161.296 12.3369L160.36 10.5693C159.406 11.0743 158.631 11.7966 158.041 12.7188L159.725 13.7969ZM161.309 12.3297C161.905 12.0028 162.789 11.7969 164.039 11.7969V9.79688C162.602 9.79688 161.345 10.0285 160.347 10.5765L161.309 12.3297ZM164.039 11.7969C165.685 11.7969 166.743 12.0799 167.365 12.4991C167.916 12.8709 168.219 13.4115 168.219 14.2891H170.219C170.219 12.8385 169.658 11.633 168.483 10.8408C167.378 10.0958 165.847 9.79688 164.039 9.79688V11.7969ZM168.219 14.2891C168.219 15.1928 167.937 15.721 167.492 16.061C166.997 16.4398 166.135 16.7109 164.742 16.7109V18.7109C166.334 18.7109 167.71 18.4117 168.707 17.6499C169.754 16.8493 170.219 15.6666 170.219 14.2891H168.219ZM165.742 17.7109C165.742 16.34 165.558 15.1392 165.019 14.3074L163.341 15.3958C163.551 15.7202 163.742 16.4257 163.742 17.7109H165.742ZM165.025 14.3176C164.407 13.3395 163.363 12.9609 162.211 12.9609V14.9609C162.934 14.9609 163.202 15.1761 163.334 15.3856L165.025 14.3176ZM162.211 12.9609C161.42 12.9609 160.687 13.1835 160.044 13.6339L161.191 15.2724C161.485 15.0665 161.814 14.9609 162.211 14.9609V12.9609ZM160.031 13.6432C158.895 14.4652 158.097 15.7645 157.558 17.3976L159.457 18.0242C159.919 16.6261 160.526 15.7535 161.204 15.2631L160.031 13.6432ZM157.568 17.3692C157.297 18.1145 157.088 18.9043 156.938 19.7369L158.906 20.0912C159.037 19.3613 159.219 18.6824 159.448 18.0527L157.568 17.3692ZM156.942 19.7141C156.778 20.5169 156.663 21.3137 156.597 22.1045L158.59 22.2705C158.649 21.5613 158.753 20.8425 158.902 20.114L156.942 19.7141ZM156.597 22.1045C156.533 22.876 156.5 23.5839 156.5 24.2266H158.5C158.5 23.6504 158.53 22.999 158.59 22.2705L156.597 22.1045ZM156.5 24.2266V31.7734H158.5V24.2266H156.5ZM156.5 31.7734C156.5 33.2297 156.893 34.5713 158.086 35.2456L159.07 33.5044C158.826 33.3662 158.5 32.9734 158.5 31.7734H156.5ZM158.086 35.2456C159.007 35.7658 160.149 35.9844 161.438 35.9844V33.9844C160.351 33.9844 159.587 33.7967 159.07 33.5044L158.086 35.2456ZM179.32 14.5938L180.168 15.1251L180.171 15.1186L179.32 14.5938ZM178.453 18.4141V19.4141H179.453V18.4141H178.453ZM175.406 17.7344L174.856 18.5694L174.865 18.5749L175.406 17.7344ZM176.93 11.8516L176.512 10.943L176.504 10.9467L176.93 11.8516ZM186.867 11.2422L186.605 12.2074L186.618 12.2107L186.867 11.2422ZM192.469 34.2344L191.706 34.8814L191.711 34.8872L191.716 34.8929L192.469 34.2344ZM194.93 34.9844H195.93V33.9844H194.93V34.9844ZM194.93 37V38H195.93V37H194.93ZM188.438 37L187.454 37.1789L187.603 38H188.438V37ZM187.688 32.875L188.671 32.6961L188.522 31.875H187.688V32.875ZM187.289 32.875V31.875H186.789L186.489 32.275L187.289 32.875ZM176.836 37L176.51 37.9454L176.515 37.9471L176.836 37ZM174.492 35.5938L173.802 36.3175L173.803 36.3179L174.492 35.5938ZM183.305 22.1172L183.334 23.1168L183.34 23.1166L183.305 22.1172ZM187.289 21.9766L187.324 22.9759L188.289 22.9419V21.9766H187.289ZM186.961 15.9531L185.986 16.1755L185.988 16.1856L185.991 16.1957L186.961 15.9531ZM185.695 13.9141L185.083 14.7045L185.094 14.7129L185.105 14.7211L185.695 13.9141ZM185.578 32.7109L186.304 33.399L186.308 33.3943L185.578 32.7109ZM187.289 23.9453H188.289V22.8985L187.243 22.9464L187.289 23.9453ZM184.219 24.0859L184.26 25.0851L184.265 25.0849L184.219 24.0859ZM178.594 25.7266L179.246 26.4844L179.252 26.4791L178.594 25.7266ZM177.375 27.5547L176.428 27.2324L176.424 27.2447L177.375 27.5547ZM182.836 12.1875C180.942 12.1875 179.32 12.6886 178.469 14.0689L180.171 15.1186C180.477 14.6239 181.199 14.1875 182.836 14.1875V12.1875ZM178.473 14.0625C177.757 15.2037 177.453 16.6877 177.453 18.4141H179.453C179.453 16.8904 179.727 15.8275 180.168 15.125L178.473 14.0625ZM178.453 17.4141C177.214 17.4141 176.42 17.1983 175.948 16.8938L174.865 18.5749C175.798 19.1767 177.036 19.4141 178.453 19.4141V17.4141ZM175.957 16.8994C175.643 16.6926 175.375 16.293 175.375 15.3906H173.375C173.375 16.707 173.795 17.8699 174.856 18.5693L175.957 16.8994ZM175.375 15.3906C175.375 14.7561 175.544 14.278 175.842 13.8981L174.268 12.6644C173.659 13.4408 173.375 14.3689 173.375 15.3906H175.375ZM175.842 13.8981C176.181 13.465 176.672 13.078 177.355 12.7564L176.504 10.9467C175.594 11.3751 174.834 11.9413 174.268 12.6644L175.842 13.8981ZM177.348 12.7601C178.031 12.4457 178.856 12.2021 179.834 12.0415L179.51 10.0679C178.394 10.2511 177.391 10.5387 176.512 10.9431L177.348 12.7601ZM179.834 12.0415C180.821 11.8794 181.884 11.7969 183.023 11.7969V9.79688C181.788 9.79688 180.616 9.88626 179.51 10.0679L179.834 12.0415ZM183.023 11.7969C184.428 11.7969 185.618 11.9392 186.605 12.2073L187.129 10.2771C185.929 9.95139 184.556 9.79688 183.023 9.79688V11.7969ZM186.618 12.2107C187.58 12.458 188.344 12.8591 188.943 13.3941L190.276 11.9028C189.406 11.1253 188.342 10.5889 187.116 10.2737L186.618 12.2107ZM188.943 13.3941C190.11 14.4371 190.812 16.2472 190.812 19.0938H192.812C192.812 15.9716 192.046 13.4848 190.276 11.9028L188.943 13.3941ZM190.812 19.0938V31.5391H192.812V19.0938H190.812ZM190.812 31.5391C190.812 32.8725 191.028 34.0817 191.706 34.8814L193.231 33.5874C193.035 33.3558 192.812 32.7681 192.812 31.5391H190.812ZM191.716 34.8929C192.439 35.7189 193.578 35.9844 194.789 35.9844V33.9844C193.782 33.9844 193.374 33.7498 193.221 33.5759L191.716 34.8929ZM194.789 35.9844H194.93V33.9844H194.789V35.9844ZM193.93 34.9844V37H195.93V34.9844H193.93ZM194.93 36H188.438V38H194.93V36ZM189.421 36.8211L188.671 32.6961L186.704 33.0539L187.454 37.1789L189.421 36.8211ZM187.688 31.875H187.289V33.875H187.688V31.875ZM186.489 32.275C185.804 33.1878 185.15 33.9688 184.527 34.622L185.973 36.003C186.662 35.2812 187.367 34.4372 188.089 33.475L186.489 32.275ZM184.527 34.622C183.958 35.2179 183.315 35.672 182.594 35.9924L183.406 37.8201C184.373 37.3905 185.23 36.7821 185.973 36.003L184.527 34.622ZM182.594 35.9924C181.917 36.2931 181.005 36.4688 179.812 36.4688V38.4688C181.183 38.4688 182.395 38.2694 183.406 37.8201L182.594 35.9924ZM179.812 36.4688C178.849 36.4688 177.966 36.3273 177.157 36.0529L176.515 37.9471C177.549 38.2977 178.651 38.4688 179.812 38.4688V36.4688ZM177.162 36.0546C176.383 35.7862 175.728 35.3899 175.182 34.8696L173.803 36.3179C174.569 37.0476 175.476 37.5888 176.51 37.9454L177.162 36.0546ZM175.182 34.87C174.626 34.3397 174.18 33.669 173.852 32.837L171.991 33.5692C172.414 34.6435 173.015 35.5666 173.802 36.3175L175.182 34.87ZM173.852 32.837C173.534 32.0282 173.359 31.0256 173.359 29.8047H171.359C171.359 31.2088 171.56 32.4718 171.991 33.5692L173.852 32.837ZM173.359 29.8047C173.359 27.5269 174.149 25.9752 175.641 24.9593L174.515 23.3063C172.382 24.7591 171.359 26.9887 171.359 29.8047H173.359ZM175.641 24.9593C177.222 23.8825 179.738 23.2239 183.334 23.1167L183.275 21.1176C179.527 21.2293 176.559 21.9144 174.515 23.3063L175.641 24.9593ZM183.34 23.1166L187.324 22.9759L187.254 20.9772L183.269 21.1178L183.34 23.1166ZM188.289 21.9766V19.0938H186.289V21.9766H188.289ZM188.289 19.0938C188.289 17.8198 188.175 16.6871 187.931 15.7106L185.991 16.1957C186.184 16.9692 186.289 17.9302 186.289 19.0938H188.289ZM187.936 15.7308C187.688 14.6429 187.15 13.7392 186.286 13.107L185.105 14.7211C185.522 15.0264 185.828 15.4821 185.986 16.1755L187.936 15.7308ZM186.308 13.1236C185.428 12.442 184.212 12.1875 182.836 12.1875V14.1875C184.023 14.1875 184.712 14.4174 185.083 14.7045L186.308 13.1236ZM176.023 30.0391C176.023 31.6537 176.371 33.0513 177.241 34.0525C178.135 35.0804 179.424 35.5156 180.914 35.5156V33.5156C179.811 33.5156 179.154 33.2047 178.751 32.7405C178.324 32.2494 178.023 31.4088 178.023 30.0391H176.023ZM180.914 35.5156C183.102 35.5156 184.939 34.8384 186.304 33.3989L184.852 32.0229C183.936 32.9897 182.664 33.5156 180.914 33.5156V35.5156ZM186.308 33.3943C187.658 31.9518 188.289 30.0629 188.289 27.8359H186.289C186.289 29.6715 185.779 31.0326 184.848 32.0276L186.308 33.3943ZM188.289 27.8359V23.9453H186.289V27.8359H188.289ZM187.243 22.9464L184.173 23.087L184.265 25.0849L187.335 24.9443L187.243 22.9464ZM184.177 23.0868C181.479 23.1992 179.32 23.7622 177.935 24.974L179.252 26.4791C180.117 25.7222 181.708 25.1914 184.26 25.0851L184.177 23.0868ZM177.941 24.9688C177.237 25.5749 176.733 26.3372 176.428 27.2324L178.322 27.877C178.517 27.3034 178.825 26.847 179.246 26.4843L177.941 24.9688ZM176.424 27.2447C176.151 28.0842 176.023 29.0205 176.023 30.0391H178.023C178.023 29.1826 178.131 28.4627 178.326 27.8647L176.424 27.2447ZM206.203 36.7422L205.854 37.6795L205.864 37.6829L206.203 36.7422ZM200.461 30.3203L199.508 30.6232L199.511 30.6339L200.461 30.3203ZM200.484 17.8516L201.437 18.1548L201.438 18.1523L200.484 17.8516ZM202.734 13.6797L202 13.0005L201.995 13.0065L202.734 13.6797ZM213.328 11.1016L213.126 12.0809L213.135 12.0828L213.144 12.0844L213.328 11.1016ZM217.969 13.5391L217.188 14.1638L217.196 14.1734L217.969 13.5391ZM214.43 18.7188H213.43V19.7188H214.43V18.7188ZM213.562 14.7812L212.679 15.2491L212.683 15.2569L212.687 15.2647L213.562 14.7812ZM207.844 13.7031L207.427 12.794L207.42 12.7974L207.844 13.7031ZM205.992 31.8438L205.163 32.402L205.166 32.4073L205.992 31.8438ZM217.945 31L218.57 30.2191L217.646 29.4798L217.071 30.5144L217.945 31ZM218.25 34.5156L217.403 33.9835L217.398 33.9922L217.393 34.0011L218.25 34.5156ZM216.727 35.9922L216.19 35.1485L216.181 35.1542L216.727 35.9922ZM214.172 37.0469L213.922 36.0785L213.914 36.0807L213.905 36.0831L214.172 37.0469ZM210.609 36.4688C209.118 36.4688 207.765 36.2423 206.542 35.8014L205.864 37.6829C207.328 38.2108 208.913 38.4688 210.609 38.4688V36.4688ZM206.552 35.805C205.358 35.3606 204.335 34.6699 203.473 33.7247L201.995 35.0722C203.071 36.252 204.361 37.1237 205.854 37.6794L206.552 35.805ZM203.473 33.7247C202.617 32.7858 201.922 31.5573 201.411 30.0068L199.511 30.6339C200.093 32.3958 200.914 33.8861 201.995 35.0722L203.473 33.7247ZM201.414 30.0175C200.922 28.4707 200.664 26.5631 200.664 24.2734H198.664C198.664 26.7025 198.937 28.8262 199.508 30.6231L201.414 30.0175ZM200.664 24.2734C200.664 21.7743 200.932 19.7438 201.437 18.1548L199.531 17.5484C198.943 19.3968 198.664 21.6476 198.664 24.2734H200.664ZM201.438 18.1523C201.953 16.5183 202.642 15.2667 203.474 14.3529L201.995 13.0065C200.921 14.1864 200.109 15.7161 199.531 17.5508L201.438 18.1523ZM203.468 14.3589C204.329 13.4293 205.321 12.7825 206.452 12.4007L205.813 10.5056C204.351 10.9988 203.078 11.8363 202 13.0005L203.468 14.3589ZM206.452 12.4007C207.636 12.0014 208.933 11.7969 210.352 11.7969V9.79688C208.739 9.79688 207.223 10.0298 205.813 10.5056L206.452 12.4007ZM210.352 11.7969C211.283 11.7969 212.208 11.8915 213.126 12.0809L213.53 10.1222C212.48 9.90542 211.42 9.79688 210.352 9.79688V11.7969ZM213.144 12.0844C214.063 12.2567 214.868 12.5257 215.569 12.8831L216.478 11.1013C215.585 10.6462 214.594 10.3214 213.512 10.1187L213.144 12.0844ZM215.569 12.8831C216.254 13.2324 216.787 13.6621 217.188 14.1638L218.75 12.9144C218.151 12.166 217.386 11.5644 216.478 11.1013L215.569 12.8831ZM217.196 14.1734C217.541 14.5944 217.719 15.0859 217.719 15.6953H219.719C219.719 14.6485 219.396 13.7025 218.742 12.9047L217.196 14.1734ZM217.719 15.6953C217.719 16.5797 217.448 16.9785 217.107 17.1931L218.174 18.885C219.271 18.1934 219.719 17.0297 219.719 15.6953H217.719ZM217.107 17.1931C216.623 17.4986 215.776 17.7188 214.43 17.7188V19.7188C215.927 19.7188 217.221 19.4857 218.174 18.885L217.107 17.1931ZM215.43 18.7188C215.43 17.0238 215.12 15.5326 214.438 14.2978L212.687 15.2647C213.161 16.1237 213.43 17.2575 213.43 18.7188H215.43ZM214.446 14.3134C213.655 12.8194 212.165 12.1875 210.352 12.1875V14.1875C211.694 14.1875 212.345 14.6181 212.679 15.2491L214.446 14.3134ZM210.352 12.1875C209.303 12.1875 208.322 12.3837 207.427 12.7941L208.26 14.6122C208.865 14.335 209.557 14.1875 210.352 14.1875V12.1875ZM207.42 12.7974C206.476 13.2393 205.709 13.983 205.099 14.9516L206.792 16.0172C207.244 15.2983 207.743 14.8544 208.268 14.6088L207.42 12.7974ZM205.099 14.9516C204.48 15.9347 204.041 17.1965 203.746 18.6888L205.708 19.0769C205.975 17.7254 206.348 16.7215 206.792 16.0172L205.099 14.9516ZM203.746 18.6888C203.447 20.1969 203.305 22.0485 203.305 24.2266H205.305C205.305 22.1234 205.443 20.4124 205.708 19.0769L203.746 18.6888ZM203.305 24.2266C203.305 27.709 203.874 30.4864 205.163 32.402L206.822 31.2855C205.861 29.8573 205.305 27.5567 205.305 24.2266H203.305ZM205.166 32.4073C206.544 34.4266 208.763 35.3516 211.57 35.3516V33.3516C209.221 33.3516 207.722 32.6046 206.818 31.2802L205.166 32.4073ZM211.57 35.3516C213.198 35.3516 214.669 35.0078 215.952 34.2853L214.97 32.5428C214.034 33.0703 212.911 33.3516 211.57 33.3516V35.3516ZM215.952 34.2853C217.201 33.5818 218.172 32.6518 218.819 31.4856L217.071 30.5144C216.625 31.3169 215.94 31.9963 214.97 32.5428L215.952 34.2853ZM217.321 31.7809C217.425 31.8643 217.535 31.993 217.637 32.1972L219.426 31.3028C219.215 30.882 218.934 30.5107 218.57 30.2191L217.321 31.7809ZM217.637 32.1972C217.708 32.3403 217.766 32.5545 217.766 32.875H219.766C219.766 32.3205 219.667 31.7847 219.426 31.3028L217.637 32.1972ZM217.766 32.875C217.766 33.2018 217.665 33.5667 217.403 33.9835L219.097 35.0478C219.522 34.3708 219.766 33.642 219.766 32.875H217.766ZM217.393 34.0011C217.163 34.3831 216.781 34.7719 216.19 35.1485L217.263 36.8358C218.047 36.3375 218.68 35.7419 219.107 35.0301L217.393 34.0011ZM216.181 35.1542C215.624 35.5166 214.881 35.8316 213.922 36.0785L214.421 38.0153C215.525 37.7309 216.485 37.3428 217.272 36.8302L216.181 35.1542ZM213.905 36.0831C212.997 36.3345 211.903 36.4688 210.609 36.4688V38.4688C212.034 38.4688 213.315 38.3217 214.439 38.0106L213.905 36.0831ZM240.281 17.7578L241.029 18.4222L241.032 18.4181L240.281 17.7578ZM236.906 21.5547L236.159 20.8903L235.643 21.4702L236.077 22.1136L236.906 21.5547ZM243.305 31.0469L244.145 30.504L244.139 30.4959L244.134 30.4879L243.305 31.0469ZM245.766 33.9766L245.128 34.7472L245.136 34.7531L245.766 33.9766ZM248.766 34.9844H249.766V33.9844H248.766V34.9844ZM248.766 37V38H249.766V37H248.766ZM244.641 36.8828L244.536 37.8773L244.545 37.8783L244.555 37.8791L244.641 36.8828ZM242.32 36.25L242.768 35.3556L242.759 35.3513L242.75 35.3471L242.32 36.25ZM240.516 34.8672L239.763 35.5257L239.771 35.5351L240.516 34.8672ZM238.688 32.3359L239.533 31.8015L239.53 31.7977L238.688 32.3359ZM233.883 24.8125L234.726 24.2743L234.148 23.3705L233.287 24.0093L233.883 24.8125ZM230.344 27.4375L229.748 26.6343L229.344 26.9342V27.4375H230.344ZM234.422 34.9844H235.422V33.9844H234.422V34.9844ZM234.422 37V38H235.422V37H234.422ZM221.508 37H220.508V38H221.508V37ZM221.508 34.9844V33.9844H220.508V34.9844H221.508ZM224.742 34.3281L224.222 33.4739L224.214 33.4791L224.742 34.3281ZM224.719 3.17969L224.221 4.04679L224.228 4.05081L224.235 4.05472L224.719 3.17969ZM221.508 2.54688H220.508V3.54688H221.508V2.54688ZM221.508 0.53125V-0.46875H220.508V0.53125H221.508ZM230.344 0.53125H231.344V-0.46875H230.344V0.53125ZM230.32 20.7344L231.32 20.7576L231.32 20.7571L230.32 20.7344ZM230.25 22.7266L229.251 22.679L229.251 22.6849L230.25 22.7266ZM230.203 23.8984L231.202 23.9384L231.202 23.9369L230.203 23.8984ZM230.156 25.0938L229.157 25.0553L229.052 27.7834L230.894 25.7685L230.156 25.0938ZM236.156 18.5312L236.894 19.206L236.9 19.2001L236.905 19.1941L236.156 18.5312ZM236.438 13.2812H235.438V14.2812H236.438V13.2812ZM236.438 11.2656V10.2656H235.438V11.2656H236.438ZM247.031 11.2656H248.031V10.2656H247.031V11.2656ZM247.031 13.2812V14.2812H248.031V13.2812H247.031ZM243.75 14.4531L243.163 13.6434L243.158 13.6475L243.75 14.4531ZM239.534 17.0934L236.159 20.8903L237.654 22.2191L241.029 18.4222L239.534 17.0934ZM236.077 22.1136L242.475 31.6058L244.134 30.4879L237.735 20.9957L236.077 22.1136ZM242.465 31.5897C243.326 32.922 244.21 33.9882 245.128 34.7472L246.403 33.2059C245.696 32.6212 244.94 31.7343 244.145 30.504L242.465 31.5897ZM245.136 34.7531C246.144 35.5713 247.32 35.9844 248.625 35.9844V33.9844C247.774 33.9844 247.044 33.7256 246.396 33.2L245.136 34.7531ZM248.625 35.9844H248.766V33.9844H248.625V35.9844ZM247.766 34.9844V37H249.766V34.9844H247.766ZM248.766 36H248.086V38H248.766V36ZM248.086 36C246.711 36 245.593 35.9612 244.727 35.8865L244.555 37.8791C245.5 37.9606 246.68 38 248.086 38V36ZM244.745 35.8883C243.948 35.8044 243.296 35.6197 242.768 35.3556L241.873 37.1444C242.657 37.5366 243.552 37.7737 244.536 37.8773L244.745 35.8883ZM242.75 35.3471C242.227 35.0982 241.73 34.7227 241.26 34.1993L239.771 35.5351C240.395 36.2304 241.101 36.7768 241.89 37.1529L242.75 35.3471ZM241.268 34.2087C240.768 33.6369 240.189 32.8401 239.533 31.8015L237.842 32.8704C238.529 33.9568 239.17 34.8475 239.763 35.5257L241.268 34.2087ZM239.53 31.7977L234.726 24.2743L233.04 25.3507L237.845 32.8742L239.53 31.7977ZM233.287 24.0093L229.748 26.6343L230.939 28.2407L234.479 25.6157L233.287 24.0093ZM229.344 27.4375V31.7734H231.344V27.4375H229.344ZM229.344 31.7734C229.344 33.2297 229.737 34.5713 230.93 35.2456L231.914 33.5044C231.669 33.3662 231.344 32.9734 231.344 31.7734H229.344ZM230.93 35.2456C231.85 35.7658 232.992 35.9844 234.281 35.9844V33.9844C233.195 33.9844 232.431 33.7967 231.914 33.5044L230.93 35.2456ZM234.281 35.9844H234.422V33.9844H234.281V35.9844ZM233.422 34.9844V37H235.422V34.9844H233.422ZM234.422 36H221.508V38H234.422V36ZM222.508 37V34.9844H220.508V37H222.508ZM221.508 35.9844H221.883V33.9844H221.508V35.9844ZM221.883 35.9844C223.193 35.9844 224.353 35.7484 225.27 35.1772L224.214 33.4791C223.726 33.7829 222.979 33.9844 221.883 33.9844V35.9844ZM225.262 35.1823C226.442 34.4644 226.82 33.0639 226.82 31.5391H224.82C224.82 32.858 224.48 33.3169 224.222 33.4739L225.262 35.1823ZM226.82 31.5391V5.80469H224.82V31.5391H226.82ZM226.82 5.80469C226.82 4.33014 226.417 2.97654 225.203 2.30465L224.235 4.05472C224.489 4.19534 224.82 4.59173 224.82 5.80469H226.82ZM225.217 2.31258C224.285 1.77752 223.153 1.54688 221.883 1.54688V3.54688C222.925 3.54688 223.683 3.7381 224.221 4.04679L225.217 2.31258ZM221.883 1.54688H221.508V3.54688H221.883V1.54688ZM222.508 2.54688V0.53125H220.508V2.54688H222.508ZM221.508 1.53125H230.344V-0.46875H221.508V1.53125ZM229.344 0.53125V19.0469H231.344V0.53125H229.344ZM229.344 19.0469C229.344 19.4738 229.336 20.028 229.321 20.7117L231.32 20.7571C231.336 20.0658 231.344 19.4949 231.344 19.0469H229.344ZM229.321 20.7111C229.305 21.3751 229.282 22.031 229.251 22.679L231.249 22.7741C231.281 22.1096 231.304 21.4374 231.32 20.7576L229.321 20.7111ZM229.251 22.6849C229.235 23.0611 229.22 23.4528 229.204 23.86L231.202 23.9369C231.218 23.5316 231.234 23.142 231.249 22.7682L229.251 22.6849ZM229.204 23.8585C229.188 24.2496 229.173 24.6486 229.157 25.0553L231.156 25.1322C231.171 24.7264 231.187 24.3285 231.202 23.9384L229.204 23.8585ZM230.894 25.7685L236.894 19.206L235.418 17.8565L229.418 24.419L230.894 25.7685ZM236.905 19.1941C237.765 18.2224 238.447 17.3628 238.937 16.6206L237.267 15.52C236.85 16.1528 236.235 16.9338 235.407 17.8684L236.905 19.1941ZM238.937 16.6206C239.443 15.8529 239.781 15.0492 239.781 14.2422H237.781C237.781 14.4976 237.667 14.9127 237.267 15.52L238.937 16.6206ZM239.781 14.2422C239.781 13.8859 239.701 13.4953 239.458 13.1499C239.209 12.797 238.858 12.5901 238.499 12.4853L237.939 14.4053C237.95 14.4085 237.936 14.4062 237.91 14.3887C237.882 14.3701 237.851 14.3413 237.824 14.3032C237.767 14.2234 237.781 14.1766 237.781 14.2422H239.781ZM238.499 12.4853C237.979 12.3338 237.266 12.2812 236.438 12.2812V14.2812C237.234 14.2812 237.708 14.338 237.939 14.4053L238.499 12.4853ZM237.438 13.2812V11.2656H235.438V13.2812H237.438ZM236.438 12.2656H247.031V10.2656H236.438V12.2656ZM246.031 11.2656V13.2812H248.031V11.2656H246.031ZM247.031 12.2812C245.672 12.2812 244.377 12.7638 243.163 13.6434L244.337 15.2629C245.279 14.5799 246.172 14.2812 247.031 14.2812V12.2812ZM243.158 13.6475C242.018 14.4853 240.809 15.6429 239.53 17.0976L241.032 18.4181C242.253 17.029 243.357 15.9834 244.342 15.2588L243.158 13.6475Z" fill="#2C2C2D" fill-opacity="0.8" mask="url(#path-1-outside-1_136_208)"/>
</g>
<defs>
<filter id="filter0_d_136_208" x="0.828125" y="0.53125" width="251.938" height="44.9375" filterUnits="userSpaceOnUse" color-interpolation-filters="sRGB">
<feFlood flood-opacity="0" result="BackgroundImageFix"/>
<feColorMatrix in="SourceAlpha" type="matrix" values="0 0 0 0 0 0 0 0 0 0 0 0 0 0 0 0 0 0 127 0" result="hardAlpha"/>
<feOffset dy="4"/>
<feGaussianBlur stdDeviation="2"/>
<feComposite in2="hardAlpha" operator="out"/>
<feColorMatrix type="matrix" values="0 0 0 0 0 0 0 0 0 0 0 0 0 0 0 0 0 0 0.64 0"/>
<feBlend mode="normal" in2="BackgroundImageFix" result="effect1_dropShadow_136_208"/>
<feBlend mode="normal" in="SourceGraphic" in2="effect1_dropShadow_136_208" result="shape"/>
</filter>
</defs>
</svg>
